<?xml version="1.0" encoding="utf-8"?>
<!-- Generator: Adobe Illustrator 16.0.0, SVG Export Plug-In . SVG Version: 6.00 Build 0)  -->
<!DOCTYPE svg PUBLIC "-//W3C//DTD SVG 1.1//EN" "http://www.w3.org/Graphics/SVG/1.1/DTD/svg11.dtd">
<svg version="1.1" id="Layer_1" xmlns="http://www.w3.org/2000/svg" xmlns:xlink="http://www.w3.org/1999/xlink" x="0px" y="0px"
	 width="283.46px" height="283.46px" viewBox="0 0 283.46 283.46" enable-background="new 0 0 283.46 283.46" xml:space="preserve">
<path fill="#0000FF" d="M201.604,184.531l1.134,5.154c-13.602,14.692-34.424,25.705-58.667,25.705
	c-5.191,0-10.611-0.504-16.641-1.782c1.227-1.3,2.398-2.553,3.502-3.724c3.873,0.686,8.324,1.142,12.893,1.142
	C167.403,211.039,188.002,200.428,201.604,184.531"/>
<path fill="#0000FF" d="M91.17,190.519c6.036,5.223,15.593,11.794,27.413,16.043c-0.986,1.054-2.06,2.194-3.2,3.403
	c-11.808-4.668-23.356-11.919-32.327-21.679C85.577,189.137,88.358,189.908,91.17,190.519"/>
<path fill="#0000FF" d="M72.063,170.248c-5.635-11.462-8.194-23.103-8.533-34.238c1.438,0,3.096,0.053,4.526,0.053
	c0.5,10.661,2.91,23.905,11.246,38.301c-3.009-1.104-5.272-2.564-7.239-4.119"/>
<path fill="#0000FF" d="M50.995,90.266c0.552,0.048,1.063,0.083,1.532,0.106c0.469,0.024,0.789,0.036,0.96,0.036h5.65
	c2.339-0.026,4.448,0.062,6.329,0.265c1.88,0.204,3.404,0.682,4.571,1.434c0.708,0.456,1.39,1.154,2.047,2.096
	c0.657,0.94,1.009,2.089,1.056,3.445c0.004,1.223-0.271,2.305-0.827,3.244c-0.556,0.939-1.415,1.784-2.581,2.534
	c-0.521,0.333-1.07,0.615-1.648,0.847c-0.578,0.231-1.115,0.408-1.611,0.526c-0.52,0.132-0.945,0.234-1.274,0.307
	c-0.328,0.072-0.499,0.175-0.509,0.307c-0.002,0.088,0.117,0.147,0.357,0.177c0.24,0.029,0.613,0.065,1.121,0.106
	c2.559,0.289,4.605,1.141,6.139,2.555s2.32,3.213,2.359,5.397c-0.001,1.171-0.254,2.31-0.757,3.415
	c-0.503,1.106-1.251,2.114-2.244,3.025c-1.056,0.949-2.43,1.674-4.123,2.174c-1.693,0.5-3.629,0.751-5.807,0.755
	c-1.042-0.004-2.078-0.02-3.107-0.047c-1.029-0.027-2.065-0.043-3.106-0.047c-0.443-0.004-0.981,0.004-1.615,0.023
	c-0.633,0.02-1.604,0.075-2.911,0.166c0.134-1.601,0.233-3.055,0.299-4.366c0.066-1.311,0.109-2.71,0.131-4.201
	c0.021-1.49,0.029-3.305,0.027-5.444c0.004-3.541-0.028-6.833-0.095-9.879C51.29,96.176,51.169,93.19,50.995,90.266 M56.386,92.579
	c-0.051,1.271-0.089,2.364-0.115,3.28c-0.026,0.916-0.038,1.843-0.038,2.782c0.001,0.86,0.01,1.739,0.026,2.634
	s0.033,1.666,0.049,2.308c0.017,0.644,0.025,1.016,0.026,1.119c0.49,0.025,0.976,0.046,1.458,0.066
	c0.483,0.018,0.931,0.028,1.344,0.029c2.948-0.036,5.139-0.65,6.571-1.841s2.146-2.74,2.14-4.647
	c-0.028-1.885-0.749-3.348-2.165-4.387s-3.36-1.565-5.833-1.58c-0.507,0.001-1.084,0.023-1.732,0.065
	C57.47,92.45,56.893,92.507,56.386,92.579 M56.334,106.827c-0.003,0.743-0.021,1.791-0.051,3.144
	c-0.03,1.352-0.046,2.672-0.051,3.96c0.003,1.489,0.022,2.879,0.057,4.167s0.067,2.204,0.096,2.747
	c0.501,0.045,1.027,0.073,1.579,0.083c0.552,0.01,1.181,0.014,1.885,0.012c0.93,0.023,1.974-0.034,3.133-0.171
	c1.159-0.137,2.204-0.49,3.133-1.059c1.016-0.658,1.772-1.473,2.267-2.445c0.495-0.971,0.741-2.13,0.739-3.475
	c0.03-2.202-0.718-3.93-2.241-5.185c-1.524-1.255-4.003-1.894-7.438-1.918c-0.407,0.003-0.905,0.021-1.497,0.053
	S56.817,106.8,56.334,106.827"/>
<path fill="#0000FF" d="M102.296,123.228c-1.695-0.088-4.058-0.158-6.295-0.198c-1.288-0.018-2.546-0.035-3.532-0.035h-0.42
	c-2.885,0-7.313,0.087-10.198,0.234c0.19-4.119,0.383-8.232,0.383-12.3v-8.133c0-4.07-0.191-8.183-0.383-12.203
	c2.836,0.141,7.22,0.234,10.057,0.234c2.836,0,8.132-0.122,9.771-0.234c-0.07,0.444-0.122,0.968-0.122,1.611
	c0,0.646,0.07,1.312,0.122,1.634c-3.119-0.235-8.681-0.618-14.828-0.618c-0.053,2.036-0.141,10.66-0.141,11.845
	c5.581,0,9.156-0.241,11.95-0.469c-0.088,0.469-0.141,1.32-0.141,1.789c0,0.476,0.054,1.178,0.141,1.652
	c-3.262-0.333-10.568-0.432-11.95-0.432c-0.086,1.585-0.012,11.82,0.054,12.683c3.458-0.052,12.318-0.32,15.542-0.617
	c-0.052,0.359-0.104,1.099-0.104,1.819c0,0.714,0.034,1.239,0.104,1.739"/>
<path fill="#0000FF" d="M165.89,123.668l-1.546-0.012c-1.899-2.565-21.747-23.271-23.467-25.101
	c-0.036,1.751-0.053,5.389-0.053,8.928c0,4.698,0.358,11.868,0.567,15.747c-0.481-0.088-1.19-0.175-2.017-0.175
	c-0.839,0-1.522,0.07-2.072,0.175c0.389-5,0.493-13.115,0.493-20.748c0-5.955-0.087-9.224-0.158-12.232l1.547,0.018
	c2.004,2.177,21.74,22.598,23.46,24.428c0.035-1.744,0.053-4.833,0.053-8.372c0-4.699-0.358-11.876-0.566-15.748
	c0.481,0.087,1.191,0.174,2.017,0.174c0.838,0,1.522-0.07,2.079-0.174c-0.396,5-0.501,13.114-0.501,20.748
	c0,5.956,0.088,9.334,0.157,12.343"/>
<path fill="#0000FF" d="M130.079,123.069c-0.432,0-2.066,0.02-2.966,0.158c-1.868-2.849-7.854-11.826-11.93-16.012h-2.406v3.76
	c0,4.07,0.186,8.184,0.376,12.252c-0.802-0.139-2.256-0.157-2.553-0.157c-0.302,0-1.758,0.019-2.559,0.157
	c0.191-4.068,0.375-8.182,0.375-12.252v-8.132c0-4.069-0.185-8.188-0.375-12.251c1.8,0.14,4.07,0.234,5.87,0.234
	c1.801,0,3.595-0.234,5.389-0.234c5.346,0,10.248,1.578,10.248,7.528c0,6.295-6.278,8.564-9.872,9.033
	c2.318,2.886,10.617,12.997,13.362,16.074C132.095,123.089,130.51,123.069,130.079,123.069 M124.989,98.78
	c0-4.705-4.113-6.197-7.332-6.197c-2.176,0-3.594,0.14-4.587,0.234c-0.141,3.453-0.283,6.629-0.283,10.038v2.603
	c0.469,0.069,2.682,0.052,3.169,0.034c3.903-0.087,9.033-1.326,9.033-6.721"/>
<path fill="#0000FF" d="M77.914,255.117l5.481,0.001c3.378-3.589,54.042-57.441,70.252-74.655c12.849-13.645,19.526-22.438,22.32-27
	c3.205-5.229,13.385-20.315,13.002-42.537l0.137-0.013l31.679,144.205l4.408-0.001c-2.633-11.716-26.993-120.127-31.728-142.762
	c-4.514-21.573-9.786-35.638-15.466-44.25c-2.811-1.666-5.252-2.694-7.256-3.3c8.392,11.45,14.502,27.659,14.502,43.881
	c0,41.938-34.115,76.056-76.054,76.056c-41.939,0-76.06-34.117-76.06-76.056c0-41.939,34.244-76.06,76.084-76.06
	c17.708,0,34.657,6.142,47.679,16.432c2.77,0.431,5.495,1.01,8.164,1.72c-9.261-8.632-20.907-15.02-33.338-18.51v-0.11
	l122.963,0.758l-0.005-3.75c-9.601-0.074-109.516-0.837-141.941-0.82c-5.333,0.006-8.915,0.369-10.068,0.457
	c-42.101,2.725-73.75,39.633-73.89,79.888c-0.043,11.704,3.077,24.892,8.133,42.69c6.684,23.517,14.369,49.993,14.514,50.498H55.7
	l-15.778-53.24l0.122-0.087c11.592,22.394,38.32,40.385,68.649,40.385c16.364,0,31.544-4.582,43.506-13.017l0.103,0.089
	L77.914,255.117"/>
<path fill="#0000FF" d="M206.581,81.766c8.784,10.778,15.905,27.838,16.941,42.112h0.141l6.217-62.427h4.13l-6.31,59.979
	c-3.415,30.433-7.755,43.067-16.061,56.362l-1.271-5.791c6.468-11.363,8.317-21.283,9.155-26.506
	c2.633-16.271-1.127-38.479-12.467-55.812c-12.7-19.422-35.409-33.708-63.284-33.708c-22.899,0-42.796,10.063-56.681,25.766
	l-3.367-2.665c14.699-16.684,36.063-27.326,60.048-27.326c25.15,0,47.543,11.302,62.804,30.015"/>
<path fill="#0000FF" d="M225.739,45.093c-0.018-0.018-0.067-0.047-0.082-0.033c-0.014,0.014,0.004,0.088,0.01,0.105
	c1.074,3.101-0.399,5.003-0.471,5.16c-0.425,0.936-1.416,3.062-0.436,5.586c0.711,1.83,2.587,3.335,4.492,3.807
	c-0.094-0.147-2.112-2.531-0.192-5.243c0.548-0.775,2.381-2.252,2.089-4.738c-0.06-0.514-0.318-0.916-0.181-1.055
	c1.861,3.063,1.264,5.327,1.271,5.516c0.011,0.285,0.222,1.266,0.973,1.216c1.31-0.086,0.927-2.074,0.876-2.569
	c0.127,0.177,2.729,2.902,0.688,6.518c-0.072,0.128-0.225,0.508-0.102,0.429c1.306-0.844,4.545-3.275,4.213-7.36
	c-0.13-1.604-0.767-3.232-1.77-4.488c-1.646-2.059-4.225-3.789-4.658-6.389c-0.354-2.112,0.643-3.374,0.536-3.338
	c-2.972,1.004-4.118,3.671-4.321,4.844c-0.084,0.486-0.13,1.4,0.037,2.69c0.131,1.01,0.85,2.372,0.093,3.053
	c-0.591,0.532-1.202-0.25-1.222-0.287C227.518,48.405,227.48,46.834,225.739,45.093"/>
</svg>
